<svg width="48" height="48" viewBox="0 0 48 48" fill="none" xmlns="http://www.w3.org/2000/svg">
<path d="M24.2049 0.154999L40.8467 7.04825L47.74 23.69L40.8467 40.3318L24.2049 47.225L7.56317 40.3318L0.669922 23.69L7.56317 7.04825L24.2049 0.154999Z" fill="#0000AC"/>
<path d="M17.2668 15.652H20.2086L23.4447 25.5073C23.6081 25.9813 23.7634 26.4471 23.9105 26.9047C24.0576 27.346 24.1965 27.7954 24.3273 28.2531H24.3763C24.5071 27.7954 24.6378 27.3541 24.7686 26.9292C24.9156 26.5043 25.0791 26.0303 25.2589 25.5073L28.4214 15.652H31.3633L32.7116 31.0969H30.4562L29.8188 22.9086C29.7534 22.1078 29.7044 21.3151 29.6717 20.5306C29.639 19.7298 29.6063 18.9208 29.5736 18.1036H29.5246C29.2958 18.9044 29.0588 19.7053 28.8136 20.5061C28.5848 21.307 28.3397 22.1078 28.0782 22.9086L25.3569 31.0969H23.2976L20.5764 22.8841C20.2985 22.0506 20.0452 21.2579 19.8164 20.5061C19.5876 19.738 19.3588 18.9371 19.13 18.1036H19.0809C19.0482 18.9044 18.9992 19.7053 18.9338 20.5061C18.8848 21.307 18.8276 22.1078 18.7622 22.9086L18.1738 31.0969H15.9674L17.2668 15.652Z" fill="white"/>
</svg>
